<?xml version="1.0" standalone="no"?>
<!DOCTYPE svg PUBLIC "-//W3C//DTD SVG 20010904//EN"
 "http://www.w3.org/TR/2001/REC-SVG-20010904/DTD/svg10.dtd">
<svg version="1.0" xmlns="http://www.w3.org/2000/svg"
 width="242.000000pt" height="208.000000pt" viewBox="0 0 242.000000 208.000000"
 preserveAspectRatio="xMidYMid meet">

<g transform="translate(0.000000,208.000000) scale(0.100000,-0.100000)"
fill="#000000" stroke="none">
<path d="M708 1910 c-168 -29 -343 -131 -443 -258 -96 -120 -165 -305 -165
-441 0 -45 3 -52 28 -65 15 -8 23 -15 19 -16 -5 0 -17 5 -28 10 -24 13 -24 5
-3 -98 64 -315 331 -549 657 -578 66 -6 200 6 240 22 13 4 17 1 17 -15 0 -40
41 -130 81 -175 25 -28 66 -58 107 -78 60 -30 76 -33 152 -33 71 0 94 4 140
26 30 15 71 41 90 58 l35 31 -47 -30 c-154 -100 -288 -104 -417 -13 -74 52
-122 146 -129 247 -4 70 -2 78 41 191 16 42 83 100 153 132 49 23 72 27 134
26 88 -1 148 -23 208 -77 48 -44 60 -46 31 -6 -12 16 -46 42 -76 57 -29 15
-53 31 -53 35 0 4 12 37 26 73 22 55 30 65 50 65 15 0 27 -8 32 -19 4 -11 42
-60 85 -110 42 -49 77 -93 76 -98 -4 -23 3 -25 17 -5 8 12 21 22 27 22 7 0 59
20 116 45 l104 44 69 -51 c62 -45 68 -53 63 -78 -6 -25 -4 -26 27 -22 l33 5
-46 -54 c-93 -109 -243 -187 -390 -204 l-56 -7 -5 74 c-3 44 -13 92 -26 122
-30 66 -37 54 -10 -15 15 -38 21 -76 21 -131 1 -66 -4 -86 -31 -140 -17 -34
-29 -64 -27 -66 7 -8 46 63 57 104 l12 42 64 6 c139 14 267 77 373 181 75 74
119 146 155 250 23 68 27 97 27 190 0 139 -29 238 -104 349 -114 171 -278 264
-485 274 -111 5 -173 -5 -270 -44 l-63 -25 -41 45 c-58 62 -133 118 -215 159
-69 35 -171 66 -216 68 -13 0 -58 2 -99 4 -41 2 -96 0 -122 -5z m352 -110 c62
-60 135 -166 169 -245 24 -58 71 -230 71 -262 0 -19 -4 -21 -37 -16 -80 12
-175 61 -359 184 -105 71 -225 146 -265 168 -78 41 -193 81 -238 81 l-26 1 30
25 c50 42 140 91 217 119 55 20 101 29 188 34 136 8 156 1 250 -89z m124 2
c69 -38 189 -153 233 -223 25 -41 39 -56 44 -47 12 19 2 -138 -11 -177 -12
-36 -61 -85 -86 -85 -8 0 -14 1 -14 3 0 1 -9 43 -19 92 -36 176 -114 322 -233
438 l-70 68 53 -22 c30 -11 76 -33 103 -47z m671 -122 c76 -19 205 -82 205
-100 0 -5 -8 -11 -18 -14 -25 -8 -304 58 -328 77 -10 9 -30 25 -44 36 l-25 20
66 1 c36 0 101 -9 144 -20z m-1477 -7 c-16 -2 -40 -2 -55 0 -16 2 -3 4 27 4
30 0 43 -2 28 -4z m129 -28 c75 -28 195 -94 291 -161 35 -24 65 -44 68 -44 2
0 51 -31 107 -69 138 -92 190 -118 270 -133 l67 -13 0 -83 0 -83 -147 4 c-163
5 -220 19 -322 79 -69 41 -222 192 -285 281 -56 78 -146 226 -146 239 0 14 27
9 97 -17z m1373 -70 c63 -14 123 -28 133 -31 10 -3 37 -47 65 -105 l48 -100
-68 -82 -67 -83 -108 27 c-59 16 -117 28 -128 29 -15 0 -37 29 -85 114 -35 63
-63 117 -63 121 1 3 29 38 63 76 42 47 67 68 79 65 9 -3 68 -17 131 -31z
m-317 -114 c25 -10 162 -237 148 -246 -5 -2 -34 -47 -65 -100 -50 -84 -60 -95
-85 -95 l-28 0 10 53 c14 79 2 261 -22 331 -12 33 -21 61 -21 63 0 6 39 3 63
-6z m-36 -217 c9 -144 5 -149 -119 -173 l-48 -8 -2 53 c-4 109 -4 108 17 114
54 14 98 74 111 150 l7 45 14 -45 c8 -25 17 -86 20 -136z m699 41 c70 -44 73
-48 80 -92 9 -63 9 -136 0 -207 -7 -55 -13 -65 -69 -123 -33 -35 -64 -63 -69
-63 -5 0 -40 21 -78 48 l-68 47 -8 125 c-4 69 -8 128 -9 133 0 9 135 177 143
177 3 0 38 -20 78 -45z m-2016 -175 c8 -5 11 -10 5 -10 -5 0 -17 5 -25 10 -8
5 -10 10 -5 10 6 0 17 -5 25 -10z m137 -46 c-3 -3 -12 -4 -19 -1 -8 3 -5 6 6
6 11 1 17 -2 13 -5z m1168 -4 c-3 -5 -12 -10 -18 -10 -7 0 -6 4 3 10 19 12 23
12 15 0z m-206 -62 c-1 -13 -5 -36 -9 -53 -7 -24 -8 -20 -7 22 1 29 5 53 10
53 4 0 6 -10 6 -22z m-626 -425 c-7 -2 -19 -2 -25 0 -7 3 -2 5 12 5 14 0 19
-2 13 -5z m-125 -10 c-15 -2 -42 -2 -60 0 -18 2 -6 4 27 4 33 0 48 -2 33 -4z"/>
<path d="M1161 758 c-6 -17 -18 -28 -30 -28 -11 0 -23 -4 -26 -10 -3 -5 1 -10
9 -10 23 0 70 45 64 61 -4 9 -9 5 -17 -13z"/>
<path d="M1557 760 c6 -23 20 -35 51 -44 13 -5 22 -3 22 3 0 6 -11 11 -24 11
-17 0 -26 7 -30 25 -4 14 -10 25 -15 25 -5 0 -7 -9 -4 -20z"/>
<path d="M1188 731 c-7 -12 -20 -21 -28 -21 -8 0 -22 -5 -30 -10 -12 -8 -11
-10 7 -10 24 0 82 44 71 55 -4 4 -13 -2 -20 -14z"/>
<path d="M1530 743 c0 -22 39 -53 68 -53 21 0 24 2 12 10 -8 5 -21 10 -28 10
-8 0 -22 10 -33 23 -10 12 -18 16 -19 10z"/>
<path d="M1208 701 c-8 -14 -23 -21 -42 -21 -21 0 -27 -3 -20 -10 7 -7 19 -7
35 -1 28 10 55 38 46 47 -3 3 -12 -3 -19 -15z"/>
<path d="M1510 715 c0 -30 56 -60 81 -44 10 6 6 9 -14 9 -17 0 -36 9 -48 23
-10 12 -18 18 -19 12z"/>
<path d="M1226 671 c-10 -11 -32 -22 -50 -24 -31 -4 -30 -4 5 -5 25 -2 42 4
54 18 10 11 16 22 13 25 -3 3 -13 -4 -22 -14z"/>
<path d="M1505 660 c12 -14 29 -20 54 -18 36 1 36 1 4 5 -17 2 -37 11 -43 19
-7 8 -17 14 -23 14 -5 0 -2 -9 8 -20z"/>
<path d="M1238 636 c-8 -8 -28 -16 -44 -19 l-29 -4 31 -2 c30 -1 74 22 63 34
-4 3 -13 -1 -21 -9z"/>
<path d="M1485 630 c12 -14 29 -20 54 -18 36 1 36 1 4 5 -17 2 -37 11 -43 19
-7 8 -17 14 -23 14 -5 0 -2 -9 8 -20z"/>
<path d="M1240 595 c-7 -8 -8 -15 -2 -15 5 0 15 7 22 15 7 8 8 15 2 15 -5 0
-15 -7 -22 -15z"/>
<path d="M1470 595 c7 -8 20 -15 29 -15 13 1 13 3 -3 15 -26 19 -42 19 -26 0z"/>
<path d="M1175 590 c3 -5 16 -10 28 -9 21 0 21 1 2 9 -28 12 -37 12 -30 0z"/>
<path d="M1535 590 c-19 -8 -19 -9 3 -9 12 -1 22 4 22 9 0 6 -1 10 -2 9 -2 0
-12 -4 -23 -9z"/>
<path d="M1180 560 c0 -17 50 -23 78 -10 16 8 22 14 14 17 -7 3 -19 0 -26 -6
-9 -8 -22 -8 -40 -1 -16 6 -26 6 -26 0z"/>
<path d="M1474 555 c11 -8 27 -15 36 -15 9 0 25 7 36 15 22 17 12 20 -18 4
-14 -8 -23 -8 -31 0 -6 6 -18 11 -26 11 -13 -1 -12 -4 3 -15z"/>
<path d="M1189 527 c14 -18 76 -24 86 -8 3 5 -9 9 -27 8 -18 0 -42 3 -53 8
-18 8 -19 7 -6 -8z"/>
<path d="M1524 525 c-16 -12 -16 -14 -3 -15 9 0 22 7 29 15 16 19 0 19 -26 0z"/>
<path d="M1465 520 c3 -5 13 -10 21 -10 8 0 12 5 9 10 -3 6 -13 10 -21 10 -8
0 -12 -4 -9 -10z"/>
<path d="M1199 491 c26 -23 48 -26 71 -10 12 8 8 9 -14 6 -17 -3 -41 2 -55 10
l-26 15 24 -21z"/>
<path d="M1530 500 c-8 -5 -11 -12 -7 -16 4 -4 15 0 24 9 18 18 8 23 -17 7z"/>
<path d="M1470 480 c20 -13 43 -13 35 0 -3 6 -16 10 -28 10 -18 0 -19 -2 -7
-10z"/>
<path d="M1189 460 c25 -21 81 -27 81 -9 0 7 -10 9 -25 5 -17 -4 -31 -1 -41 9
-9 8 -21 15 -27 15 -7 -1 -1 -10 12 -20z"/>
<path d="M1532 464 c-13 -9 -31 -13 -42 -9 -11 4 -20 2 -20 -4 0 -16 53 -13
76 3 26 20 13 29 -14 10z"/>
<path d="M1170 442 c0 -10 22 -32 32 -32 4 0 5 6 2 14 -6 16 -34 30 -34 18z"/>
<path d="M1540 435 c-20 -24 -6 -28 15 -5 10 11 13 20 8 20 -6 0 -16 -7 -23
-15z"/>
<path d="M1166 405 c8 -20 37 -35 66 -35 20 1 21 2 5 11 -9 5 -21 7 -27 4 -5
-3 -14 4 -20 15 -12 23 -32 27 -24 5z"/>
<path d="M1220 410 c0 -13 20 -13 40 0 12 8 9 10 -12 10 -16 0 -28 -4 -28 -10z"/>
<path d="M1480 410 c20 -13 40 -13 40 0 0 6 -12 10 -27 10 -22 0 -25 -2 -13
-10z"/>
<path d="M1550 400 c-7 -13 -18 -19 -28 -16 -9 3 -24 1 -32 -4 -11 -7 -8 -10
16 -10 25 0 74 30 74 45 0 13 -21 2 -30 -15z"/>
<path d="M1570 386 c-6 -9 -10 -21 -8 -28 3 -8 9 -4 17 10 15 28 9 39 -9 18z"/>
<path d="M1150 384 c0 -20 38 -46 62 -41 l23 4 -23 2 c-13 0 -32 11 -43 24
-10 12 -18 17 -19 11z"/>
<path d="M1141 350 c14 -31 19 -36 19 -24 0 6 -7 19 -16 30 -14 18 -14 18 -3
-6z"/>
<path d="M1587 364 c-4 -4 -7 -14 -7 -23 0 -11 3 -12 11 -4 6 6 10 16 7 23 -2
6 -7 8 -11 4z"/>
<path d="M1513 343 c9 -2 23 -2 30 0 6 3 -1 5 -18 5 -16 0 -22 -2 -12 -5z"/>
<path d="M1606 328 c-5 -16 -17 -29 -32 -32 -13 -4 -24 -10 -24 -15 0 -14 37
-1 55 19 9 10 15 27 12 37 -3 14 -5 13 -11 -9z"/>
<path d="M1123 326 c2 -21 53 -63 63 -53 4 3 -5 11 -19 18 -14 6 -30 21 -36
33 -9 18 -11 18 -8 2z"/>
<path d="M1178 313 c7 -3 16 -2 19 1 4 3 -2 6 -13 5 -11 0 -14 -3 -6 -6z"/>
<path d="M1525 310 c-7 -12 2 -12 30 0 19 8 19 9 -2 9 -12 1 -25 -3 -28 -9z"/>
</g>
</svg>
